HIERARCHY
ROOT Hips
{
	OFFSET 0.00000 0.00000 0.00000
	CHANNELS 6 Xposition Yposition Zposition Zrotation Yrotation Xrotation 
	JOINT LHipJoint
	{
		OFFSET 0 0 0
		CHANNELS 3 Zrotation Yrotation Xrotation
		JOINT LeftHip
		{
			OFFSET 1.53794 -1.55850 0.93568
			CHANNELS 3 Zrotation Yrotation Xrotation
			JOINT LeftKnee
			{
				OFFSET 2.28545 -6.27922 0.00000
				CHANNELS 3 Zrotation Yrotation Xrotation
				JOINT LeftAnkle
				{
					OFFSET 2.37329 -6.52057 0.00000
					CHANNELS 3 Zrotation Yrotation Xrotation
					JOINT LeftToe
					{
						OFFSET 0.14846 -0.40788 2.09160
						CHANNELS 3 Zrotation Yrotation Xrotation
						End Site
						{
							OFFSET 0.00000 -0.00000 1.07536
						}
					}
				}
			}
		}
	}
	JOINT RHipJoint
	{
		OFFSET 0 0 0
		CHANNELS 3 Zrotation Yrotation Xrotation
		JOINT RightHip
		{
			OFFSET -1.78290 -1.55850 0.93568
			CHANNELS 3 Zrotation Yrotation Xrotation
			JOINT RightKnee
			{
				OFFSET -2.24144 -6.15831 0.00000
				CHANNELS 3 Zrotation Yrotation Xrotation
				JOINT RightAnkle
				{
					OFFSET -2.35091 -6.45907 0.00000
					CHANNELS 3 Zrotation Yrotation Xrotation
					JOINT RightToe
					{
						OFFSET -0.14428 -0.39641 2.07944
						CHANNELS 3 Zrotation Yrotation Xrotation
						End Site
						{
							OFFSET -0.00000 -0.00000 1.06864
						}
					}
				}
			}
		}
	}
	JOINT lowerback
	{
		OFFSET 0 0 0
		CHANNELS 3 Zrotation Yrotation Xrotation
		JOINT Chest
		{
			OFFSET -0.08841 2.11430 -0.15818
			CHANNELS 3 Zrotation Yrotation Xrotation
			JOINT Chest2
			{
				OFFSET -0.00033 2.12605 -0.08097
				CHANNELS 3 Zrotation Yrotation Xrotation
				JOINT lowerneck
				{
					OFFSET 0 0 0
					CHANNELS 3 Zrotation Yrotation Xrotation
					JOINT Neck
					{
						OFFSET 0.04431 1.59447 0.43193
						CHANNELS 3 Zrotation Yrotation Xrotation
						JOINT Head
						{
							OFFSET 0.00455 1.62017 -0.58852
							CHANNELS 3 Zrotation Yrotation Xrotation
							End Site
							{
								OFFSET -0.00920 1.72955 -0.25850
							}
						}
					}
				}
				JOINT LeftCollar
				{
					OFFSET 0 0 0
					CHANNELS 3 Zrotation Yrotation Xrotation
					JOINT LeftShoulder
					{
						OFFSET 2.86490 1.49927 -0.33774
CHANNELS 3 Zrotation Xrotation Yrotation
						JOINT LeftElbow
						{
OFFSET 0 -4.874080 0.000000
CHANNELS 3 Zrotation Xrotation Yrotation
							JOINT LeftWrist
							{
OFFSET 0 -2.767290 0.000000
CHANNELS 3 Zrotation Xrotation Yrotation
								JOINT lhand
								{
									OFFSET 0 0 0
CHANNELS 3 Zrotation Xrotation Yrotation
									JOINT LFingers
									{
OFFSET 0 -0.989220 0.000000
CHANNELS 3 Zrotation Xrotation Yrotation
										End Site
										{
OFFSET 0 -0.797530 0.000000
										}
									}
								}
								JOINT LThumb
								{
OFFSET 0 0.000000 0.000000
CHANNELS 3 Zrotation Xrotation Yrotation
									End Site
									{
OFFSET 0 -0.809720 0.809720
									}
								}
							}
						}
					}
				}
				JOINT RightCollar
				{
					OFFSET 0 0 0
					CHANNELS 3 Zrotation Yrotation Xrotation
					JOINT RightShoulder
					{
						OFFSET -2.94414 1.45463 -0.25291
CHANNELS 3 Zrotation Xrotation Yrotation
						JOINT RightElbow
						{
OFFSET 0 -4.714040 0.000000
CHANNELS 3 Zrotation Xrotation Yrotation
							JOINT RightWrist
							{
OFFSET 0 -2.834680 0.000000
CHANNELS 3 Zrotation Xrotation Yrotation
								JOINT rhand
								{
									OFFSET 0 0 0
CHANNELS 3 Zrotation Xrotation Yrotation
									JOINT RFingers
									{
OFFSET 0 -0.868200 0.000000
CHANNELS 3 Zrotation Xrotation Yrotation
										End Site
										{
OFFSET 0 -0.699960 0.000000
										}
									}
								}
								JOINT RThumb
								{
OFFSET 0 0.000000 0.000000
CHANNELS 3 Zrotation Xrotation Yrotation
									End Site
									{
OFFSET 0 -0.710650 0.710650
									}
								}
							}
						}
					}
				}
			}
		}
	}
}
MOTION
Frames: 16
Frame Time: .0083333
11.4673 14.6899 -7.4409 183.1170 -27.3480 -175.8340 0.0000 0.0000 0.0000 -35.1185 -6.6237 -20.8410 5.7874 14.2191 44.1223 -0.8955 20.4011 -20.5398 0.3287 3.6847 10.1913 0.0000 0.0000 0.0000 9.3621 2.3812 -19.7256 -20.2380 -19.9986 90.6958 1.6860 -23.1423 -1.9116 -0.4130 4.1255 -11.4299 -6.3866 2.2760 0.9485 -1.4814 2.9473 1.5600 2.0338 1.3810 0.8304 6.0906 4.3104 -32.9974 -2.3663 2.6333 39.2565 -1.7783 1.0863 21.8013 0.0000 -0.0000 0.0000 11.1387 15.8356 -54.2202 97.5505 -59.7835 66.5341 15.5193 22.0195 -5.2121 0.0 0.0 0.0 -7.1250 0.0 0.0 -9.2762 35.2629 -2.243 0.0000 -0.0000 0.0000 -4.8263 23.523 31.1314 -73.2345 -58.9108 -45.5337 -6.6322 11.6847 1.9763 0.0 0.0 0.0 7.1250 0.0 -0.0 15.8845 31.6968 5.3508
11.3632 14.6710 -7.6448 182.7290 -27.8990 -175.5410 0.0000 0.0000 0.0000 -35.5688 -6.6772 -19.8420 5.8067 14.2384 44.2009 -0.8953 20.4703 -20.6920 0.2555 3.2520 8.9810 0.0000 0.0000 0.0000 8.8929 3.8239 -22.1304 -20.6931 -19.9885 92.0270 1.6671 -22.7902 -2.7943 -0.4439 4.2750 -11.8517 -6.7297 1.9377 1.1241 -1.5614 2.4757 1.6208 2.1422 1.1378 0.8231 6.2402 4.5428 -32.9712 -2.3920 2.9384 39.1433 -1.7285 1.2195 21.7429 -0.0000 0.0000 0.0000 10.7345 14.8955 -54.2228 97.8916 -59.7634 66.8289 15.5917 22.0858 -5.2698 0.0 0.0 0.0 -7.1250 0.0 0.0 -9.2248 35.3256 -2.2161 -0.0000 0.0000 0.0000 -4.458 24.3265 30.4741 -73.0125 -58.881 -45.3436 -6.6175 11.9523 1.9536 0.0 0.0 0.0 7.1250 0.0 -0.0 15.8919 31.6743 5.3624
11.2543 14.6662 -7.8472 182.4260 -28.5304 -175.2420 0.0000 0.0000 0.0000 -35.9281 -6.8230 -18.7421 5.7748 14.2065 44.0709 -0.9045 20.4885 -20.6190 0.1886 2.7972 7.7146 0.0000 0.0000 0.0000 8.4891 5.2238 -24.5195 -21.0085 -19.9756 92.9499 1.6432 -22.4481 -3.6339 -0.4751 4.4204 -12.2624 -6.9703 1.5652 1.2706 -1.6012 1.9623 1.6546 2.2372 0.8768 0.8140 6.3659 4.7740 -32.8962 -2.4431 3.2627 39.0692 -1.6854 1.3493 21.7008 0.0000 -0.0000 0.0000 10.431 13.9856 -54.3638 98.3742 -59.7333 67.2458 15.683 22.1659 -5.3892 0.0 0.0 0.0 -7.1250 0.0 0.0 -9.1662 35.4523 -2.173 0.0000 -0.0000 0.0000 -4.0958 25.1716 29.7803 -72.9659 -58.8747 -45.3037 -6.6025 12.1803 1.8489 0.0 0.0 0.0 7.1250 0.0 -0.0 15.8856 31.5725 5.4007
11.1402 14.6757 -8.0499 182.2580 -29.2277 -174.9600 0.0000 0.0000 0.0000 -36.1528 -7.0542 -17.5471 5.6946 14.1258 43.7436 -0.9166 20.4435 -20.3686 0.1322 2.3433 6.4554 0.0000 0.0000 0.0000 8.2053 6.5733 -26.8553 -21.1750 -19.9669 93.4372 1.6160 -22.1307 -4.3845 -0.5143 4.5965 -12.7612 -7.1028 1.1511 1.3650 -1.5710 1.4019 1.6627 2.3468 0.5955 0.8164 6.5116 5.0262 -32.7979 -2.5686 3.6366 39.0415 -1.6745 1.4861 21.6932 -0.0000 0.0000 0.0000 10.1806 13.1249 -54.5985 98.9674 -59.694 67.758 15.8121 22.1867 -5.5121 0.0 0.0 0.0 -7.1250 0.0 0.0 -9.0769 35.5846 -2.1218 -0.0000 0.0000 0.0000 -3.7945 26.0645 29.1122 -73.1338 -58.8974 -45.4475 -6.6317 12.2731 1.6816 0.0 0.0 0.0 7.1250 0.0 -0.0 15.8342 31.4114 5.4458
11.0214 14.6999 -8.2538 182.2240 -29.9952 -174.7180 0.0000 0.0000 0.0000 -36.2418 -7.3633 -16.2289 5.5660 13.9941 43.2139 -0.9321 20.3387 -19.9364 0.0859 1.8899 5.2014 0.0000 0.0000 0.0000 8.0516 7.8586 -29.0894 -21.1886 -19.9661 93.4770 1.5881 -21.8452 -5.0507 -0.5571 4.7810 -13.2851 -7.1391 0.6991 1.4359 -1.4737 0.7966 1.6415 2.4728 0.2954 0.8095 6.6559 5.2909 -32.6450 -2.7316 4.0423 39.0622 -1.6776 1.6252 21.7104 -0.0000 0.0000 0.0000 9.9912 12.3216 -54.9174 99.6338 -59.6464 68.3332 15.9704 22.121 -5.6066 0.0 0.0 0.0 -7.1250 0.0 0.0 -8.9593 35.6896 -2.0706 -0.0000 0.0000 0.0000 -3.5327 27.0147 28.4672 -73.4984 -58.9457 -45.7598 -6.6938 12.1849 1.4816 0.0 0.0 0.0 7.1250 0.0 -0.0 15.7523 31.2197 5.4911
10.8975 14.7386 -8.4602 182.2780 -30.8225 -174.5120 0.0000 0.0000 0.0000 -36.2387 -7.7265 -14.7722 5.3895 13.8094 42.4792 -0.9411 20.1369 -19.3547 0.0507 1.4531 3.9965 0.0000 0.0000 0.0000 7.9850 9.0623 -31.1796 -21.0506 -19.9735 93.0730 1.5628 -21.6071 -5.6248 -0.6028 4.9701 -13.8233 -7.1264 0.2222 1.4776 -1.3288 0.1629 1.6036 2.6207 -0.0172 0.8075 6.8435 5.5679 -32.4566 -2.9439 4.4605 39.1152 -1.7133 1.7659 21.7485 0.0000 -0.0000 0.0000 9.8799 11.5682 -55.3217 100.3483 -59.5915 68.9496 16.1302 22.0056 -5.6907 0.0 0.0 0.0 -7.1250 0.0 0.0 -8.8389 35.7842 -2.0216 0.0000 -0.0000 0.0000 -3.2938 27.9979 27.8405 -74.0022 -59.0105 -46.1915 -6.7826 11.9614 1.3036 0.0 0.0 0.0 7.1250 0.0 -0.0 15.6538 31.0496 5.5208
10.7682 14.7910 -8.6696 182.3680 -31.6972 -174.3270 0.0000 0.0000 0.0000 -36.1939 -8.1093 -13.1728 5.1647 13.5670 41.5297 -0.9544 19.8685 -18.5297 0.0239 0.9974 2.7418 0.0000 0.0000 0.0000 7.9523 10.1681 -33.1000 -20.7676 -19.9859 92.2448 1.5416 -21.4147 -6.1582 -0.6499 5.1567 -14.3560 -7.1047 -0.2694 1.4967 -1.1537 -0.4876 1.5603 2.7941 -0.3381 0.8176 7.0318 5.8422 -32.2706 -3.1591 4.8692 39.2118 -1.7556 1.9008 21.8210 0.0000 0.0000 0.0000 9.849 10.8462 -55.7984 101.0727 -59.5316 69.5741 16.2829 21.9017 -5.731 0.0 0.0 0.0 -7.1250 0.0 0.0 -8.7181 35.8334 -1.9829 0.0000 0.0000 0.0000 -3.0777 28.9769 27.2191 -74.5888 -59.0833 -46.6946 -6.8669 11.6614 1.1842 0.0 0.0 0.0 7.1250 0.0 -0.0 15.5689 30.9363 5.5329
10.6342 14.8571 -8.8817 182.4900 -32.5706 -174.1470 0.0000 0.0000 0.0000 -36.1002 -8.4592 -11.4951 4.8972 13.2671 40.3766 -0.9632 19.4933 -17.4562 0.0066 0.5227 1.4364 0.0000 0.0000 0.0000 7.9531 11.2261 -34.8683 -20.3480 -19.9971 91.0176 1.5303 -21.3044 -6.6367 -0.6919 5.3177 -14.8169 -7.0827 -0.7568 1.4838 -0.9562 -1.1295 1.5086 2.9885 -0.6549 0.8405 7.2064 6.1079 -32.0988 -3.3544 5.2598 39.3353 -1.7913 2.0289 21.9169 0.0000 -0.0000 0.0000 9.8927 10.1439 -56.3256 101.7591 -59.471 70.1656 16.4052 21.8838 -5.741 0.0 0.0 0.0 -7.1250 0.0 0.0 -8.6182 35.8501 -1.9562 0.0000 -0.0000 0.0000 -2.8716 29.9276 26.5909 -75.1881 -59.1546 -47.2089 -6.9529 11.3871 1.1279 0.0 0.0 0.0 7.1250 0.0 -0.0 15.4931 30.8839 5.5243
10.4951 14.9358 -9.0969 182.6000 -33.4193 -173.9470 0.0000 0.0000 0.0000 -35.9957 -8.7286 -9.7797 4.5936 12.9109 39.0359 -0.9675 19.0072 -16.0731 0.0000 0.0229 0.0630 0.0000 0.0000 0.0000 7.9385 12.2365 -36.4824 -19.8012 -19.9991 89.4189 1.5270 -21.2599 -7.0740 -0.7293 5.4563 -15.2147 -7.0770 -1.2193 1.4405 -0.7631 -1.7368 1.4483 3.1851 -0.9551 0.8723 7.3923 6.3578 -31.9458 -3.5444 5.6180 39.4518 -1.8346 2.1485 22.0139 -0.0000 -0.0000 0.0000 10.0326 9.4657 -56.912 102.4001 -59.411 70.7175 16.4848 22.0108 -5.7008 0.0 0.0 0.0 -7.1250 0.0 0.0 -8.5468 35.8129 -1.9475 -0.0000 -0.0000 0.0000 -2.6395 30.8285 25.9145 -75.7450 -59.2181 -47.6873 -6.9703 11.1751 1.1394 0.0 0.0 0.0 7.1250 0.0 -0.0 15.4816 30.8956 5.5154
10.3513 15.0254 -9.3140 182.6970 -34.2249 -173.7120 0.0000 0.0000 0.0000 -35.8690 -8.8850 -8.1052 4.2671 12.5076 37.5522 -0.9548 18.3647 -14.4019 0.0062 -0.5068 -1.3927 0.0000 0.0000 0.0000 7.9039 13.2054 -37.9687 -19.1359 -19.9821 87.4728 1.5316 -21.2772 -7.4385 -0.7593 5.5652 -15.5278 -7.0904 -1.6594 1.3567 -0.5659 -2.3119 1.3762 3.3933 -1.2397 0.9162 7.5751 6.5994 -31.8204 -3.7198 5.9568 39.5819 -1.8754 2.2626 22.1290 -0.0000 0.0000 0.0000 10.2292 8.8213 -57.5154 102.9843 -59.3533 71.2203 16.5255 22.2407 -5.5774 0.0 0.0 0.0 -7.1250 0.0 0.0 -8.4964 35.6879 -1.962 -0.0000 0.0000 0.0000 -2.4117 31.6647 25.2054 -76.2213 -59.2703 -48.0966 -6.9554 11.0741 1.1502 0.0 0.0 0.0 7.1250 0.0 -0.0 15.4948 30.9057 5.5165
10.2026 15.1252 -9.5331 182.7880 -34.9989 -173.4450 0.0000 0.0000 0.0000 -35.7064 -8.9154 -6.5032 3.9295 12.0660 35.9659 -0.9118 17.5107 -12.5099 0.0255 -1.0316 -2.8358 0.0000 0.0000 0.0000 7.8550 14.1133 -39.3196 -18.3576 -19.9352 85.1929 1.5414 -21.3348 -7.7239 -0.7854 5.6578 -15.7948 -7.1049 -2.0765 1.2408 -0.3701 -2.8548 1.2948 3.5972 -1.5086 0.9690 7.7224 6.8229 -31.7301 -3.8551 6.2687 39.7211 -1.8959 2.3672 22.2563 0.0000 0.0000 0.0000 10.4897 8.2175 -58.1273 103.5414 -59.2957 71.6995 16.5266 22.5218 -5.3595 0.0 0.0 0.0 -7.1250 0.0 0.0 -8.4664 35.4635 -2.0017 0.0000 0.0000 0.0000 -2.1515 32.443 24.4407 -76.6693 -59.3178 -48.4817 -6.9002 11.0093 1.1561 0.0 0.0 0.0 7.1250 0.0 -0.0 15.5385 30.9099 5.5315
10.0491 15.2328 -9.7535 182.8970 -35.7481 -173.1460 0.0000 0.0000 0.0000 -35.4780 -8.8180 -5.0346 3.5945 11.6003 34.3321 -0.8345 16.4206 -10.4555 0.0571 -1.5417 -4.2408 0.0000 0.0000 0.0000 7.8121 14.9394 -40.5546 -17.4737 -19.8463 82.5955 1.5542 -21.4165 -7.8325 -0.8131 5.7542 -16.0729 -7.1095 -2.4928 1.0766 -0.1619 -3.3935 1.1873 3.8040 -1.7749 1.0257 7.8909 7.0550 -31.6128 -4.0031 6.5912 39.8449 -1.9237 2.4774 22.3709 0.0000 0.0000 0.0000 10.772 7.7106 -58.6808 104.0764 -59.2379 72.1593 16.4834 22.8191 -5.0361 0.0 0.0 0.0 -7.1250 0.0 0.0 -8.4597 35.1281 -2.0698 0.0000 0.0000 0.0000 -1.9173 33.1842 23.695 -77.0973 -59.3615 -48.8499 -6.8342 10.9674 1.1197 0.0 0.0 0.0 7.1250 0.0 -0.0 15.5836 30.8727 5.5631
9.8911 15.3469 -9.9755 183.0120 -36.4960 -172.8220 0.0000 0.0000 0.0000 -35.1821 -8.5877 -3.7015 3.2691 11.1185 32.6806 -0.7247 15.0798 -8.2915 0.0998 -2.0375 -5.6093 0.0000 0.0000 0.0000 7.7823 15.6547 -41.6495 -16.4942 -19.7027 79.7008 1.5687 -21.5115 -7.7690 -0.8351 5.8295 -16.2905 -7.1137 -2.9157 0.8868 0.0558 -3.9406 1.0561 4.0161 -2.0449 1.0779 8.0435 7.3047 -31.6654 -4.0669 6.8791 39.6832 -1.9699 2.6033 22.9865 -0.0000 -0.0000 0.0000 11.0755 7.3199 -59.1655 104.6260 -59.1761 72.6314 16.4018 23.1221 -4.6393 0.0 0.0 0.0 -7.1250 0.0 0.0 -8.4759 34.7157 -2.1597 -0.0000 -0.0000 0.0000 -1.7211 33.8958 22.9939 -77.5202 -59.4032 -49.2138 -6.7475 10.9392 1.0542 0.0 0.0 0.0 7.1250 0.0 -0.0 15.6399 30.8069 5.6103
9.7296 15.4658 -10.1997 183.1630 -37.2438 -172.5000 0.0000 0.0000 0.0000 -34.7825 -8.2210 -2.5161 2.9599 10.6298 31.0414 -0.5910 13.5059 -6.0775 0.1491 -2.4885 -6.8577 0.0000 0.0000 0.0000 7.8091 16.2651 -42.5840 -15.4314 -19.4920 76.5328 1.5859 -21.6280 -7.5533 -0.8508 5.8829 -16.4449 -7.1065 -3.3375 0.6693 0.2855 -4.4855 0.9023 4.2296 -2.3134 1.1261 8.2218 7.5418 -31.4986 -4.1923 7.1955 39.7995 -1.9906 2.7159 23.0978 0.0000 0.0000 0.0000 11.4067 7.0489 -59.6109 105.1788 -59.1113 73.106 16.3018 23.3741 -4.1972 0.0 0.0 0.0 -7.1250 0.0 0.0 -8.5028 34.2562 -2.2626 0.0000 0.0000 0.0000 -1.5285 34.5971 22.3131 -77.9635 -59.4454 -49.5955 -6.6538 10.922 0.9619 0.0 0.0 0.0 7.1250 0.0 -0.0 15.6971 30.7148 5.6683
9.5633 15.5876 -10.4254 183.3070 -38.0098 -172.1660 0.0000 0.0000 0.0000 -34.3261 -7.7462 -1.4408 2.6666 10.1348 29.4142 -0.4480 11.7763 -3.7608 0.2044 -2.9113 -8.0318 0.0000 0.0000 0.0000 7.8545 16.7296 -43.3530 -14.3060 -19.2042 73.1368 1.5980 -21.7179 -7.2335 -0.8622 5.9211 -16.5557 -7.1047 -3.7677 0.4283 0.5143 -5.0419 0.7283 4.4398 -2.5876 1.1725 8.4515 7.7855 -31.2877 -4.3418 7.5048 39.9139 -2.0374 2.8306 23.2025 0.0000 -0.0000 0.0000 11.7595 6.9028 -60.0129 105.7532 -59.0412 73.5987 16.1903 23.5676 -3.7564 0.0 0.0 0.0 -7.1250 0.0 0.0 -8.5403 33.7981 -2.3686 0.0000 -0.0000 0.0000 -1.3641 35.3019 21.76 -78.4428 -59.4892 -50.0083 -6.7444 10.6064 0.9069 0.0 0.0 0.0 7.1250 0.0 -0.0 15.6182 30.664 5.6576
9.3929 15.7099 -10.6522 183.4580 -38.7763 -171.8280 0.0000 0.0000 0.0000 -33.8072 -7.1828 -0.4713 2.3897 9.6345 27.8012 -0.3047 9.9773 -1.3099 0.2613 -3.2886 -9.0834 0.0000 0.0000 0.0000 7.9378 17.0701 -43.9673 -13.1392 -18.8318 69.5573 1.6024 -21.7692 -6.7932 -0.8762 5.9678 -16.6909 -7.0922 -4.1963 0.1671 0.7445 -5.5966 0.5354 4.6404 -2.8607 1.2137 8.6699 8.0164 -31.0432 -4.4728 7.7951 40.0205 -2.0779 2.9397 23.2863 0.0000 0.0000 0.0000 12.1255 6.8647 -60.385 106.3354 -58.9673 74.0978 16.0797 23.7057 -3.3525 0.0 0.0 0.0 -7.1250 0.0 0.0 -8.5825 33.3786 -2.4686 0.0000 0.0000 0.0000 -1.2248 36.0152 21.3057 -78.9633 -59.5347 -50.4569 -6.9878 10.1138 0.8622 0.0 0.0 0.0 7.1250 0.0 -0.0 15.4233 30.6268 5.5965
